<?xml version="1.0" standalone="no"?>
<!DOCTYPE svg PUBLIC "-//W3C//DTD SVG 20010904//EN"
 "http://www.w3.org/TR/2001/REC-SVG-20010904/DTD/svg10.dtd">
<svg version="1.0" xmlns="http://www.w3.org/2000/svg"
 width="3840.000000pt" height="2160.000000pt" viewBox="0 0 3840.000000 2160.000000"
 preserveAspectRatio="xMidYMid meet">

<g transform="translate(0.000000,2160.000000) scale(0.100000,-0.100000)"
fill="#ff0000" stroke="none">
<path d="M240 10805 l0 -5205 22 5 c101 22 1179 173 1446 202 l162 17 0 2840
c0 1561 2 2837 5 2835 2 -3 414 -1224 915 -2714 502 -1491 915 -2713 919
-2718 4 -4 59 0 122 8 62 9 326 38 585 65 488 52 685 76 912 112 l132 21 0
4868 0 4869 -805 0 -805 0 -1 -2952 c0 -1873 -4 -2946 -10 -2933 -5 11 -474
1339 -1043 2950 l-1033 2930 -762 3 -761 2 0 -5205z"/>
<path d="M7010 11210 l0 -4800 32 0 c18 0 1014 79 2214 175 1200 96 2184 175
2188 175 3 0 6 351 6 780 l0 780 -68 0 c-218 0 -2018 -111 -2694 -166 l-78 -6
0 1210 0 1211 53 5 c118 13 822 26 1440 26 l657 0 0 816 0 815 -287 -6 c-762
-16 -1333 -25 -1586 -25 l-277 0 2 1093 3 1092 1418 3 1417 2 0 810 0 810
-2220 0 -2220 0 0 -4800z"/>
<path d="M12480 15200 l0 -810 833 -2 832 -3 3 -3754 2 -3753 33 6 c17 3 377
9 800 12 l767 7 0 3743 0 3744 830 0 830 0 0 810 0 810 -2465 0 -2465 0 0
-810z"/>
<path d="M18450 11505 l0 -4505 780 0 780 0 2 1843 3 1842 1098 3 1097 2 0
810 0 810 -1100 0 -1100 0 2 1038 3 1037 1453 3 1452 2 0 810 0 810 -2235 0
-2235 0 0 -4505z"/>
<path d="M23930 11446 l0 -4563 278 -7 c584 -14 1285 -44 2147 -92 478 -26
1682 -99 1818 -110 l77 -6 0 800 0 801 -52 5 c-46 5 -1097 69 -1578 96 -255
14 -632 31 -875 38 l-220 7 -3 3798 -2 3797 -795 0 -795 0 0 -4564z"/>
<path d="M29610 11286 l0 -4724 38 -6 c20 -3 91 -8 157 -11 237 -12 834 -56
1040 -76 116 -11 238 -23 273 -26 l62 -6 0 4787 0 4786 -785 0 -785 0 0 -4724z"/>
<path d="M32569 15963 c10 -27 429 -1125 931 -2441 618 -1623 910 -2400 906
-2415 -3 -12 -466 -1086 -1030 -2387 l-1024 -2365 87 -12 c47 -7 253 -30 456
-53 534 -58 777 -87 970 -116 94 -14 178 -26 189 -27 16 -2 106 205 587 1338
313 737 576 1358 585 1380 l17 40 15 -35 c8 -19 266 -692 574 -1495 307 -803
564 -1465 571 -1471 19 -18 1783 -313 1793 -300 1 0 -38 107 -87 236 -957
2557 -1939 5210 -1936 5230 3 18 1810 4425 2010 4903 l16 37 -876 -2 -877 -3
-557 -1358 c-306 -747 -559 -1361 -562 -1363 -3 -3 -21 37 -41 88 -20 51 -256
665 -525 1363 l-488 1270 -861 3 -862 2 19 -47z"/>
</g>
</svg>
